<svg width="63" height="38" viewBox="0 0 63 38" fill="none" xmlns="http://www.w3.org/2000/svg">
<path d="M17.6335 13.6482C17.5631 15.8685 18.6695 16.8518 18.6969 17.4762C18.6839 17.6033 18.6407 17.7254 18.571 17.8323C18.5013 17.9393 18.407 18.0279 18.2962 18.0908L17.0451 18.9691C16.8832 19.083 16.6923 19.1483 16.4948 19.1574C16.4528 19.1554 15.6943 19.3367 14.4931 16.6469C13.7602 17.5644 12.8278 18.3015 11.7671 18.8019C10.7064 19.3023 9.5456 19.5526 8.37359 19.5338C6.78238 19.621 2.47009 18.628 2.69196 14.0237C2.53655 10.2712 6.02099 7.9401 9.62466 8.13714C10.3186 8.1391 11.7358 8.17341 14.2175 8.75177V7.22059C14.4804 4.62679 12.7807 2.61429 9.83774 2.91621C9.60316 2.91719 7.94158 2.8672 5.35733 3.90727C4.63796 4.2386 4.54609 4.1837 4.30662 4.1837C3.58237 4.1837 3.88048 2.07808 4.01927 1.81145C4.52849 1.18407 7.52423 0.0126469 10.4642 0.0293115C12.43 -0.145052 14.3853 0.463424 15.9074 1.72322C16.5261 2.41733 16.9982 3.23002 17.295 4.1122C17.5918 4.99437 17.7073 5.92774 17.6345 6.85592L17.6335 13.6482ZM9.18679 16.8233C12.3565 16.7773 13.6985 14.8657 14.0044 13.8364C14.2448 12.8513 14.2048 12.2278 14.2048 11.1505C13.2596 10.9231 11.8991 10.6751 10.3382 10.6731C8.8574 10.5614 6.15293 11.225 6.25849 13.8355C6.1373 15.4813 7.34536 16.9135 9.18679 16.8233ZM25.8925 19.0829C25.1243 19.1534 24.7666 18.6064 24.6532 18.0663L19.7857 1.92614C19.6909 1.65362 19.6284 1.37228 19.5981 1.08506C19.5801 0.96665 19.6098 0.845931 19.6805 0.749431C19.7512 0.652932 19.8573 0.588546 19.9753 0.570421C19.9988 0.5665 19.7671 0.570421 22.1501 0.570421C23.0082 0.484157 23.2877 1.16153 23.3767 1.58696L26.868 15.3921L30.109 1.58696C30.1608 1.27132 30.3964 0.501803 31.3601 0.583165H33.0373C33.2494 0.56552 34.1232 0.534151 34.2767 1.59971L37.5431 15.5813L41.1468 1.59971C41.1937 1.38601 41.4127 0.485138 42.3862 0.583165H44.3136C44.3967 0.570422 44.9147 0.503763 44.8267 1.42424C44.7847 1.60559 45.16 0.379269 39.6709 18.0791C39.5585 18.6192 39.1998 19.1662 38.4316 19.0956H36.6048C35.5356 19.2083 35.3821 18.1487 35.3655 18.0418L32.1244 4.59934L28.9205 18.0281C28.9049 18.1349 28.7514 19.1946 27.6812 19.0819H25.8925V19.0829ZM52.6225 19.6347C52.0478 19.6357 49.3071 19.6053 47.0161 18.43C46.7879 18.3331 46.5935 18.1704 46.4576 17.9625C46.3217 17.7547 46.2504 17.511 46.2528 17.2625V16.2087C46.2528 15.3804 46.8587 15.5323 47.1158 15.6313C48.0971 16.0293 48.7265 16.3312 49.9317 16.5724C53.5139 17.3105 55.0894 16.3469 55.4755 16.1332C56.7608 15.3676 56.8624 13.6159 55.9886 12.7072C54.9643 11.8455 54.4756 11.8132 50.7957 10.6486C50.3422 10.5221 46.5245 9.31445 46.5157 5.51589C46.456 2.74761 48.9641 0.0087255 53.3106 0.0312718C54.5489 0.0302915 57.8486 0.436124 58.742 1.56246C58.8739 1.76733 58.9394 2.00848 58.9296 2.25257V3.24362C58.9296 3.67886 58.7713 3.89648 58.4536 3.89648C57.7001 3.81218 56.363 2.80152 53.6487 2.84269C52.9753 2.8074 49.7499 2.9319 49.8945 5.29043C49.8525 7.14903 52.4954 7.846 52.7974 7.92638C56.361 9.00174 57.5525 9.18015 58.9668 10.826C60.642 13.0071 59.7389 15.5607 59.3919 16.2607C57.5271 19.9357 52.7046 19.6367 52.6225 19.6347ZM56.5516 29.9139C49.7069 34.9838 39.7706 37.6825 31.2868 37.6825C19.8395 37.7583 8.77804 33.5367 0.276802 25.8477C-0.361441 25.2703 0.201542 24.4793 0.977598 24.9194C10.408 30.3297 21.0852 33.1724 31.9495 33.1654C40.0626 33.1218 48.0872 31.4711 55.5625 28.3082C56.7139 27.8181 57.6903 29.0728 56.5516 29.9139ZM59.4047 26.6506C58.5289 25.5213 53.6106 26.1232 51.4085 26.3869C50.7449 26.4623 50.6325 25.885 51.2336 25.4585C55.15 22.6971 61.5823 23.4882 62.3212 24.4165C63.0592 25.3448 62.1208 31.8087 58.4546 34.8966C57.8916 35.374 57.3531 35.1221 57.6033 34.4947C58.4282 32.4116 60.2804 27.7808 59.4047 26.6506Z" fill="black" fill-opacity="0.75"/>
</svg>
