<svg width="16" height="17" viewBox="0 0 16 17" fill="none" xmlns="http://www.w3.org/2000/svg">
<path d="M11.9362 11.6122C11.1252 12.3412 10.0545 12.7453 8.87941 12.7453C6.28907 12.7453 4.38682 10.8431 4.38682 8.23135C4.38682 5.6196 6.22855 3.79742 8.87941 3.79742C10.034 3.79742 11.1252 4.18197 11.9567 4.91103L12.5219 5.39706L15.0331 2.8868L14.4046 2.31976C12.9269 0.985486 10.9651 0.236877 8.87847 0.236877C4.22295 0.236877 0.842102 3.5963 0.842102 8.21179C0.842102 12.8077 4.30395 16.2873 8.87847 16.2873C11.0042 16.2873 12.9865 15.5387 14.4455 14.183L15.0526 13.6159L12.5023 11.1075L11.9362 11.6122Z" fill="white"/>
<path d="M8.7565 5.57947C9.47066 5.57947 10.1556 5.86317 10.6606 6.36816C11.1656 6.87315 11.4493 7.55806 11.4493 8.27222C11.4493 8.98639 11.1656 9.6713 10.6606 10.1763C10.1556 10.6813 9.47066 10.965 8.7565 10.965C8.04242 10.9648 7.35764 10.6811 6.85276 10.1761C6.34788 9.67114 6.06424 8.9863 6.06424 8.27222C6.06424 7.55815 6.34788 6.87331 6.85276 6.36833C7.35764 5.86336 8.04242 5.5796 8.7565 5.57947Z" fill="#FF3D2E"/>
</svg>
