<svg width="63" height="45" viewBox="0 0 63 45" fill="none" xmlns="http://www.w3.org/2000/svg">
<path d="M34.3842 20.2734H27.924V14.3789H34.3842V20.2734ZM34.3842 0H27.924V6.02348H34.3842V0ZM42.0271 14.369H35.5668V20.2635H42.0271V14.369ZM26.7511 7.21428H20.2908V13.1782H26.7511V7.21428ZM34.3842 7.21428H27.924V13.1782H34.3842V7.21428ZM61.4373 17.1376C60.0299 16.1751 56.7851 15.8278 54.2929 16.3041C53.9703 13.9225 52.6607 11.8485 50.276 9.9829L48.9077 9.06003L47.9987 10.4493C46.2004 13.208 45.7117 17.7529 47.6371 20.7497C46.7868 21.2161 45.1155 21.8512 42.9067 21.8115H0.421319C-0.428975 26.8526 0.988183 33.402 4.72166 37.8973C8.34763 42.2537 13.7817 44.4666 20.887 44.4666C36.2705 44.4666 47.6567 37.2721 52.9832 24.2031C55.0747 24.2428 59.5901 24.213 61.9064 19.7177C62.053 19.4696 62.5515 18.4078 62.7372 18.0208L61.4373 17.1376ZM11.4849 14.369H5.03441V20.2635H11.4947V14.369H11.4849ZM19.118 14.369H12.6577V20.2635H19.118V14.369ZM26.7511 14.369H20.2908V20.2635H26.7511V14.369ZM19.118 7.21428H12.6577V13.1782H19.118V7.21428Z" fill="black" fill-opacity="0.75"/>
</svg>
