<svg width="18" height="18" viewBox="0 0 18 18" fill="none" xmlns="http://www.w3.org/2000/svg">
<path d="M13 1H5C2.79086 1 1 2.74588 1 4.89954V12.6986C1 14.8523 2.79086 16.5981 5 16.5981H13C15.2091 16.5981 17 14.8523 17 12.6986V4.89954C17 2.74588 15.2091 1 13 1Z" stroke="white" stroke-width="1" stroke-linecap="round" stroke-linejoin="round"/>
<path d="M12.2004 8.30705C12.2991 8.95612 12.1854 9.61902 11.8754 10.2015C11.5654 10.7839 11.0749 11.2562 10.4737 11.5512C9.87244 11.8462 9.19111 11.9489 8.52658 11.8447C7.86205 11.7404 7.24816 11.4345 6.77222 10.9706C6.29629 10.5066 5.98254 9.9081 5.87561 9.26026C5.76867 8.61243 5.874 7.94821 6.17661 7.3621C6.47922 6.77598 6.9637 6.29781 7.56114 5.9956C8.15858 5.69338 8.83856 5.58252 9.50435 5.67877C10.1835 5.77694 10.8122 6.08546 11.2977 6.55874C11.7832 7.03202 12.0996 7.64497 12.2004 8.30705Z" stroke="white" stroke-width="1" stroke-linecap="round" stroke-linejoin="round"/>
<path d="M13.4004 4.50977H13.4084" stroke="white" stroke-width="1" stroke-linecap="round" stroke-linejoin="round"/>
</svg>
