<svg width="63" height="64" viewBox="0 0 63 64" fill="none" xmlns="http://www.w3.org/2000/svg">
<path d="M56.1411 0H6.99098C3.29076 0 0.288696 3.03824 0.288696 6.78304V56.5253C0.288696 60.2701 3.29076 63.3083 6.99098 63.3083H56.1411C59.8413 63.3083 62.8434 60.2701 62.8434 56.5253V6.78304C62.8434 3.03824 59.8413 0 56.1411 0ZM34.3307 49.3749C34.3307 55.5361 30.7562 58.3482 25.5479 58.3482C20.8424 58.3482 18.1196 55.8894 16.7233 52.9077L21.5126 49.9825C22.4342 51.6359 23.272 53.0349 25.2966 53.0349C27.2235 53.0349 28.4523 52.2718 28.4523 49.2901V29.0681H34.3307V49.3749ZM48.238 58.3482C42.7784 58.3482 39.2457 55.7198 37.5283 52.2718L42.3176 49.4738C43.5743 51.5511 45.2219 53.0914 48.1123 53.0914C50.5419 53.0914 52.1057 51.862 52.1057 50.1521C52.1057 48.1172 50.514 47.3965 47.8191 46.1953L46.3529 45.5594C42.1082 43.7365 39.3016 41.433 39.3016 36.586C39.3016 32.1205 42.6667 28.729 47.9029 28.729C51.645 28.729 54.3259 30.0432 56.2528 33.4912L51.6729 36.4588C50.6675 34.6359 49.5784 33.9152 47.8889 33.9152C46.1714 33.9152 45.0823 35.0174 45.0823 36.4588C45.0823 38.2394 46.1714 38.9601 48.6987 40.0764L50.1649 40.7124C55.1637 42.8744 57.9702 45.0931 57.9702 50.0673C57.9702 55.4089 53.8092 58.3482 48.238 58.3482Z" fill="black" fill-opacity="0.75"/>
</svg>
