<svg width="19" height="18" viewBox="0 0 19 18" fill="none" xmlns="http://www.w3.org/2000/svg">
<path d="M12.7899 5.92578C14.13 5.92578 15.4151 6.44474 16.3627 7.36849C17.3102 8.29224 17.8426 9.54511 17.8426 10.8515V16.5981H14.4741V10.8515C14.4741 10.416 14.2967 9.9984 13.9809 9.69049C13.665 9.38257 13.2366 9.20959 12.7899 9.20959C12.3433 9.20959 11.9149 9.38257 11.599 9.69049C11.2832 9.9984 11.1057 10.416 11.1057 10.8515V16.5981H7.7373V10.8515C7.7373 9.54511 8.26963 8.29224 9.21719 7.36849C10.1647 6.44474 11.4499 5.92578 12.7899 5.92578V5.92578Z" stroke="white" stroke-width="1" stroke-linecap="round" stroke-linejoin="round"/>
<path d="M4.36842 6.74658H1V16.5981H4.36842V6.74658Z" stroke="white" stroke-width="1" stroke-linecap="round" stroke-linejoin="round"/>
<path d="M2.68421 4.28369C3.61438 4.28369 4.36842 3.54861 4.36842 2.64185C4.36842 1.73508 3.61438 1 2.68421 1C1.75405 1 1 1.73508 1 2.64185C1 3.54861 1.75405 4.28369 2.68421 4.28369Z" stroke="white" stroke-width="1" stroke-linecap="round" stroke-linejoin="round"/>
</svg>
