<svg width="63" height="65" viewBox="0 0 63 65" fill="none" xmlns="http://www.w3.org/2000/svg">
<path d="M62.5225 14.4896C62.5426 14.5736 62.5547 14.6677 62.5547 14.7498V28.4995C62.5551 28.675 62.5088 28.8474 62.4204 28.9993C62.332 29.1512 62.2048 29.2771 62.0515 29.3641L50.4471 36.0148V49.1801C50.4475 49.3556 50.4012 49.528 50.3128 49.6799C50.2244 49.8318 50.0971 49.9577 49.9439 50.0447L25.7206 63.9085C25.6641 63.9397 25.6039 63.9639 25.5415 63.9805L25.4791 64.0125C25.3107 64.0546 25.1344 64.0546 24.9659 64.0125C24.9405 64.005 24.9161 63.9942 24.8935 63.9805C24.8353 63.9626 24.7793 63.9385 24.7264 63.9085L0.513205 50.0447C0.358928 49.958 0.230295 49.8325 0.140216 49.6807C0.0501368 49.5289 0.00178057 49.3563 0 49.1801V7.93296C0 7.8489 0.0201257 7.75483 0.0422639 7.67278C0.0523268 7.64075 0.0623896 7.62074 0.0744651 7.58872L0.136855 7.43261C0.146918 7.40058 0.179119 7.38057 0.199244 7.34855L0.293835 7.22246C0.327715 7.20166 0.359405 7.17752 0.388426 7.15041C0.43069 7.11838 0.460878 7.08836 0.503142 7.06635L12.6108 0.133453C12.7639 0.0460127 12.9373 0 13.1139 0C13.2905 0 13.4639 0.0460127 13.617 0.133453L25.7347 7.06635C25.777 7.08636 25.8072 7.11838 25.8394 7.15041L25.944 7.22246C25.975 7.26259 26.0032 7.30471 26.0286 7.34855C26.0487 7.36856 26.0809 7.40058 26.101 7.43261L26.1634 7.58872C26.1735 7.62074 26.1956 7.64075 26.1956 7.67278C26.2261 7.75607 26.2404 7.84436 26.2379 7.93296V33.6911L36.3208 27.9171V14.7518C36.3246 14.6335 36.3498 14.5169 36.3953 14.4075L36.4577 14.2514C36.4778 14.2094 36.51 14.1894 36.5301 14.1574C36.5623 14.1153 36.5825 14.0733 36.6147 14.0433C36.6469 14.0133 36.6871 13.9912 36.7193 13.9712C36.7495 13.9379 36.7849 13.9095 36.824 13.8872L48.9417 6.95427C49.093 6.86189 49.2672 6.81299 49.4448 6.81299C49.6224 6.81299 49.7966 6.86189 49.9479 6.95427L62.0556 13.8872C62.0978 13.9072 62.128 13.9392 62.1703 13.9712C62.2025 13.9912 62.2327 14.0133 62.2649 14.0433C62.2971 14.0733 62.3272 14.1153 62.3595 14.1574C62.3796 14.1894 62.4118 14.2094 62.4218 14.2514C62.454 14.3035 62.4641 14.3555 62.4842 14.4075C62.5044 14.4275 62.5164 14.4596 62.5265 14.4916L62.5225 14.4896ZM60.53 27.9151V16.491L56.2956 18.9087L50.4471 22.2651V33.6891L60.53 27.9151ZM48.4345 48.5957V37.1596L42.6685 40.4219L26.2318 49.7625V61.3026L48.4345 48.5957ZM2.00854 9.67219V48.5957L24.2092 61.3026V49.7625L12.6047 43.2259C12.5625 43.2059 12.5323 43.1738 12.5001 43.1418C12.4679 43.1218 12.4276 43.0998 12.4055 43.0698H12.3954C12.3632 43.0377 12.3431 42.9977 12.3109 42.9657C12.2908 42.9337 12.2586 42.9036 12.2384 42.8616C12.215 42.8223 12.1974 42.7798 12.1861 42.7355C12.166 42.6935 12.1438 42.6635 12.1338 42.6214C12.1237 42.5794 12.1137 42.5274 12.1137 42.4753C12.1036 42.4333 12.0935 42.4033 12.0935 42.3613V15.4463L6.245 12.0899L2.00854 9.67219ZM13.1099 2.15688L3.0269 7.93096L13.1099 13.705L23.1928 7.93096L13.1099 2.15688ZM18.3607 38.2043L24.2092 34.848V9.67419L19.9747 12.0919L14.1162 15.4483V40.622L18.3607 38.2043ZM49.4408 8.97369L39.3457 14.7478L49.4408 20.5218L59.5237 14.7478L49.4408 8.97369ZM48.4345 22.2651L38.3394 16.491V27.9151L44.188 31.2714L48.4325 33.6891L48.4345 22.2651ZM25.2175 48.0233L47.4081 35.4304L37.3352 29.6563L15.1546 42.3533L25.2175 48.0233Z" fill="black" fill-opacity="0.75"/>
</svg>
