<svg width="64" height="39" viewBox="0 0 64 39" fill="none" xmlns="http://www.w3.org/2000/svg">
<path d="M31.7011 38.5337C31.4958 38.5337 31.2906 38.4747 31.1049 38.3764L29.2282 37.2557C28.9448 37.0984 29.0816 37.0395 29.1794 37.01C29.5508 36.8822 29.629 36.8527 30.0297 36.6168C30.0688 36.5971 30.1275 36.6069 30.1665 36.6266L31.6131 37.4917C31.662 37.5211 31.7402 37.5211 31.7891 37.4917L37.4385 34.2083C37.4874 34.1788 37.5265 34.1198 37.5265 34.051V27.4942C37.5265 27.4253 37.4972 27.3664 37.4385 27.3369L31.7891 24.0634C31.7402 24.0339 31.6718 24.0339 31.6131 24.0634L25.9637 27.3369C25.905 27.3664 25.8757 27.4352 25.8757 27.4942V34.051C25.8757 34.11 25.9148 34.169 25.9637 34.1985L27.508 35.093C28.3486 35.5158 28.8666 35.0144 28.8666 34.5229V28.0447C28.8666 27.9562 28.935 27.8775 29.0327 27.8775H29.7463C29.8342 27.8775 29.9124 27.9464 29.9124 28.0447V34.5229C29.9124 35.6534 29.3064 36.2924 28.241 36.2924C27.9185 36.2924 27.6546 36.2924 26.9411 35.9385L25.4554 35.0832C25.0938 34.8669 24.8592 34.4737 24.8592 34.051V27.4942C24.8592 27.0715 25.084 26.6684 25.4554 26.462L31.1049 23.1786C31.4665 22.9722 31.9357 22.9722 32.2875 23.1786L37.937 26.462C38.2987 26.6782 38.5332 27.0715 38.5332 27.4942V34.051C38.5332 34.4737 38.3084 34.8768 37.937 35.0832L32.2875 38.3666C32.1214 38.4747 31.9161 38.5337 31.7011 38.5337ZM36.2656 32.0653C36.2656 30.8365 35.4446 30.5121 33.7048 30.2762C31.9454 30.0402 31.7695 29.9223 31.7695 29.5094C31.7695 29.1653 31.9161 28.7131 33.2161 28.7131C34.3792 28.7131 34.8093 28.9687 34.9852 29.7551C35.0048 29.8338 35.0634 29.8829 35.1416 29.8829H35.8747C35.9235 29.8829 35.9626 29.8633 35.992 29.8338C36.0213 29.7945 36.0408 29.7551 36.0311 29.706C35.9138 28.3494 35.0243 27.7203 33.2161 27.7203C31.6033 27.7203 30.6455 28.4084 30.6455 29.5487C30.6455 30.7972 31.6034 31.1314 33.1477 31.2887C34.995 31.4755 35.1416 31.7409 35.1416 32.1046C35.1416 32.7436 34.6333 33.009 33.4409 33.009C31.9454 33.009 31.6131 32.6354 31.5056 31.8883C31.4958 31.8097 31.4274 31.7507 31.3394 31.7507H30.6064C30.5184 31.7507 30.4402 31.8195 30.4402 31.9178C30.4402 32.8714 30.9583 34.0117 33.4311 34.0117C35.2393 34.0117 36.2656 33.3039 36.2656 32.0653ZM41.5926 27.1403C41.5926 27.7399 41.1038 28.2314 40.5076 28.2314C39.9114 28.2314 39.4227 27.7399 39.4227 27.1403C39.4227 26.5209 39.9309 26.0491 40.5076 26.0491C41.0941 26.0393 41.5926 26.5209 41.5926 27.1403ZM41.4166 27.1403C41.4166 26.6291 41.0061 26.226 40.4978 26.226C39.9994 26.226 39.5888 26.6291 39.5888 27.1403C39.5888 27.6514 39.9994 28.0643 40.4978 28.0643C41.0061 28.0545 41.4166 27.6416 41.4166 27.1403ZM40.9768 27.7497H40.7227C40.7129 27.6908 40.6738 27.3762 40.6738 27.3664C40.6542 27.2975 40.6347 27.2582 40.5467 27.2582H40.3317V27.7497H40.0971V26.5209H40.5174C40.664 26.5209 40.9475 26.5209 40.9475 26.8454C40.9475 27.0714 40.8008 27.1206 40.7129 27.1501C40.879 27.1599 40.8888 27.2681 40.9181 27.4253C40.9279 27.5236 40.9475 27.6908 40.9768 27.7497ZM40.7031 26.8847C40.7031 26.7176 40.5858 26.7176 40.5272 26.7176H40.3317V27.0616H40.5174C40.6738 27.0616 40.7031 26.9535 40.7031 26.8847ZM14.2053 12.8764C14.2053 12.611 14.0685 12.375 13.8437 12.2472L7.85212 8.77711C7.75438 8.71812 7.63709 8.68863 7.5198 8.6788H7.46116C7.34387 8.6788 7.23635 8.71812 7.12884 8.77711L1.14704 12.2472C0.922239 12.375 0.7854 12.6208 0.7854 12.8764L0.795175 22.2152C0.795175 22.343 0.863594 22.461 0.97111 22.5298C1.07863 22.5986 1.21546 22.5986 1.33275 22.5298L4.89055 20.4753C5.11536 20.3376 5.2522 20.1017 5.2522 19.8461V15.4814C5.2522 15.2258 5.38903 14.9801 5.61384 14.8523L7.12884 13.9774C7.24613 13.9086 7.36342 13.8791 7.49048 13.8791C7.61754 13.8791 7.74461 13.9086 7.85212 13.9774L9.36712 14.8523C9.59193 14.9801 9.72876 15.2258 9.72876 15.4814V19.8461C9.72876 20.1017 9.8656 20.3475 10.0904 20.4753L13.6482 22.5298C13.7557 22.5986 13.9023 22.5986 14.0098 22.5298C14.1174 22.4708 14.1858 22.343 14.1858 22.2152L14.2053 12.8764ZM46.9683 2.68227V20.0231C46.9683 20.2787 46.8315 20.5244 46.6067 20.6522L40.6151 24.1322C40.3903 24.26 40.1167 24.26 39.8918 24.1322L33.9003 20.6522C33.6755 20.5244 33.5386 20.2787 33.5386 20.0231V13.0632C33.5386 12.8076 33.6755 12.5618 33.9003 12.434L39.8918 8.95405C40.1167 8.82626 40.3903 8.82626 40.6151 8.95405L42.1106 9.81913C42.2767 9.91743 42.4918 9.78963 42.4918 9.60286V0.362297C42.4918 0.0870458 42.785 -0.0899011 43.0294 0.0477242L46.5969 2.05312C46.8217 2.17109 46.9683 2.41685 46.9683 2.68227ZM42.4722 15.3536C42.4722 15.2848 42.4331 15.2258 42.3843 15.1963L40.3317 13.997C40.273 13.9675 40.2046 13.9675 40.146 13.997L38.0934 15.1963C38.0348 15.2258 38.0054 15.2848 38.0054 15.3536V17.7424C38.0054 17.8112 38.0445 17.8702 38.0934 17.8997L40.146 19.0892C40.2046 19.1187 40.273 19.1187 40.3219 19.0892L42.3745 17.8997C42.4331 17.8702 42.4625 17.8112 42.4625 17.7424V15.3536H42.4722ZM62.9784 15.2848C63.2032 15.157 63.3401 14.9113 63.3401 14.6557V12.9747C63.3401 12.7191 63.2032 12.4733 62.9784 12.3455L57.026 8.86558C56.8012 8.73778 56.5275 8.73778 56.3027 8.86558L50.3111 12.3455C50.0863 12.4733 49.9495 12.7191 49.9495 12.9747V19.9346C49.9495 20.2 50.0863 20.4359 50.3111 20.5637L56.2636 23.9749C56.4786 24.1027 56.7523 24.1027 56.9771 23.9749L60.574 21.9597C60.8183 21.822 60.8183 21.4681 60.574 21.3305L54.5433 17.8505C54.426 17.7817 54.3576 17.6638 54.3576 17.536V15.3536C54.3576 15.2258 54.426 15.1079 54.5433 15.0391L56.42 13.9479C56.5275 13.8791 56.6741 13.8791 56.7816 13.9479L58.6582 15.0391C58.7658 15.1079 58.844 15.2258 58.844 15.3536V17.0641C58.844 17.3394 59.147 17.5163 59.3913 17.3787L62.9784 15.2848ZM55.423 15.6289C55.3839 15.6584 55.3546 15.6977 55.3546 15.7468V17.0838C55.3546 17.1329 55.3839 17.1821 55.423 17.2017L56.5763 17.8702C56.6154 17.8997 56.6741 17.8997 56.7132 17.8702L57.8665 17.2017C57.9056 17.1723 57.935 17.1329 57.935 17.0838V15.7468C57.935 15.6977 57.9056 15.6485 57.8665 15.6289L56.7132 14.9604C56.6741 14.9309 56.6154 14.9309 56.5763 14.9604L55.423 15.6289ZM30.5771 19.9051V12.9845C30.5771 12.7289 30.4207 12.4832 30.1959 12.3554L24.2239 8.89507C24.0186 8.77711 23.7351 8.75744 23.5006 8.89507L17.5286 12.3554C17.3037 12.4832 17.1474 12.7191 17.1474 12.9845V19.9051C17.1474 20.1803 17.3331 20.4163 17.5383 20.5342L23.5201 23.9945C23.7547 24.1322 24.0284 24.1223 24.2434 23.9945L30.2056 20.5342C30.3816 20.4359 30.5086 20.2688 30.5575 20.0722C30.5673 20.0231 30.5771 19.9641 30.5771 19.9051ZM23.3149 7.62695L23.2367 7.6761H23.3442L23.3149 7.62695ZM30.7628 20.4261L30.7237 20.3573V20.4458L30.7628 20.4261Z" fill="black" fill-opacity="0.75"/>
</svg>
