<svg width="85" height="45" viewBox="0 0 85 45" fill="none" xmlns="http://www.w3.org/2000/svg">
<path d="M42.3124 2.23011C64.976 2.23011 82.4034 11.8143 82.4034 22.341C82.4034 32.8676 64.9628 42.4518 42.3124 42.4518C19.6488 42.4518 2.2214 32.8676 2.2214 22.341C2.2214 11.8143 19.662 2.23011 42.3124 2.23011ZM42.3124 0C18.948 0 0 9.99569 0 22.341C0 34.6862 18.948 44.6819 42.3124 44.6819C65.6768 44.6819 84.6248 34.6862 84.6248 22.341C84.6248 9.99569 65.6768 0 42.3124 0ZM28.8518 20.5489C27.8072 25.9251 24.1181 25.3675 19.5827 25.3675L21.3942 15.9958C26.4188 15.9958 29.8302 15.4515 28.8518 20.5489ZM12.8788 34.8588H17.7315L18.8819 28.9118C24.3164 28.9118 27.6882 29.3101 30.8087 26.3764C34.2598 23.1905 35.159 17.5223 32.6996 14.6816C31.417 13.1948 29.3542 12.4647 26.551 12.4647H17.2026L12.8788 34.8588ZM37.4333 6.5045H42.2595L41.1092 12.4515C45.2743 12.4515 49.1353 12.1462 50.9997 13.8718C52.9566 15.6772 52.0178 17.9869 49.9022 28.8853H45.0098C47.0461 18.3453 47.4296 17.4692 46.6891 16.6728C45.9751 15.9028 44.3487 16.0621 40.4216 16.0621L37.9357 28.8853H33.1095L37.4333 6.5045ZM66.7743 20.5489C65.7165 26.0047 61.9216 25.3675 57.5052 25.3675L59.3167 15.9958C64.3678 15.9958 67.7527 15.4515 66.7743 20.5489ZM50.8013 34.8588H55.6673L56.8176 28.9118C62.5298 28.9118 65.69 29.2437 68.7445 26.3764C72.1956 23.1905 73.0947 17.5223 70.6353 14.6816C69.3527 13.1948 67.29 12.4647 64.4868 12.4647H55.1384L50.8013 34.8588Z" fill="black" fill-opacity="0.75"/>
</svg>
