<svg width="64" height="64" viewBox="0 0 64 64" fill="none" xmlns="http://www.w3.org/2000/svg">
<path d="M63.2091 31.6542C63.2091 49.1411 49.2105 63.3083 31.9318 63.3083C14.653 63.3083 0.654419 49.1411 0.654419 31.6542C0.654419 14.1672 14.653 0 31.9318 0C49.2105 0 63.2091 14.1672 63.2091 31.6542ZM45.6058 11.7061C42.4292 11.8169 39.6612 13.5895 37.593 16.0427C35.3019 18.7333 33.7849 21.9245 32.6844 25.173C30.7295 23.5566 29.2224 21.4437 26.077 20.5258C24.8352 20.1417 23.5203 20.0648 22.243 20.3017C20.9657 20.5385 19.7633 21.0821 18.7366 21.8869C17.6711 22.7301 16.8881 23.8851 16.4944 25.1947C15.5581 28.2969 17.4934 31.0666 18.3691 32.0558L20.2927 34.137C20.6817 34.5406 21.6474 35.6109 21.1684 37.1363C20.67 38.806 18.6956 39.8763 16.6586 39.2492C15.7516 38.9702 14.4477 38.2818 14.7429 37.3203C14.8661 36.9187 15.1417 36.6318 15.2922 36.2915C15.4251 36.0007 15.4955 35.7752 15.5366 35.6525C15.9041 34.4259 15.4036 32.8274 14.0998 32.4257C12.8878 32.0439 11.6582 32.3446 11.1675 33.9194C10.628 35.7138 11.4725 38.9604 16.0155 40.3828C21.3405 42.0308 25.8288 39.1028 26.4699 35.2806C26.8687 32.8907 25.7975 31.1081 23.8427 28.831L22.2456 27.0366C21.2779 26.0692 20.9534 24.3994 21.9504 23.1214C22.7949 22.0372 23.9971 21.5862 25.9617 22.1223C28.8412 22.9156 30.1157 24.9237 32.2543 26.5519C31.3688 29.4799 30.7862 32.4159 30.2682 35.053L29.9535 37.0215C28.4267 45.1191 27.2656 49.5724 24.2317 52.1285C23.6198 52.5618 22.746 53.2206 21.4421 53.27C20.7482 53.2799 20.5136 52.8091 20.5136 52.5914C20.4921 52.1067 20.9026 51.8792 21.1763 51.6636C21.5731 51.4479 22.1947 51.0641 22.1439 49.881C22.1029 48.4803 20.9534 47.2636 19.2918 47.3171C18.0505 47.3566 16.1562 48.5417 16.2286 50.706C16.299 52.9515 18.3652 54.6311 21.4695 54.5184C23.1409 54.465 26.8472 53.7765 30.5008 49.3766C34.7565 44.3376 35.9489 38.5568 36.8443 34.323L37.8432 28.7459C38.4003 28.8093 38.9926 28.8508 39.6436 28.8706C44.9373 28.9834 47.5861 26.2037 47.6252 24.1838C47.6564 22.9572 46.8335 21.7524 45.6918 21.784C45.2012 21.7966 44.7285 21.9732 44.3476 22.2864C43.9667 22.5996 43.6991 23.0317 43.5865 23.5151C43.3421 24.6388 45.2754 25.6597 43.7683 26.6489C42.699 27.3472 40.7754 27.8438 38.0758 27.4402L38.5665 24.6883C39.5752 19.4752 40.8047 13.0653 45.5003 12.9129C45.8463 12.8912 47.0974 12.9208 47.1189 13.7577C47.1286 14.0347 47.07 14.1197 46.7435 14.7469C46.4393 15.1554 46.2845 15.6582 46.3056 16.1693C46.3447 17.4988 47.3437 18.3752 48.8 18.3218C50.7333 18.2605 51.2846 16.3434 51.2631 15.3641C51.183 13.0554 48.7785 11.6131 45.6019 11.7081L45.6058 11.7061Z" fill="black" fill-opacity="0.75"/>
</svg>
