<svg width="63" height="63" viewBox="0 0 63 63" fill="none" xmlns="http://www.w3.org/2000/svg">
<path d="M0.036499 31.2773V62.5547H62.5912V0H0.036499V31.2773ZM50.4438 28.783C51.9435 29.1361 53.3064 29.9218 54.3633 31.0428C54.9341 31.6527 55.7883 32.7728 55.8607 33.0484C55.8802 33.1305 53.163 34.9524 51.5131 35.9709C51.4525 36.0119 51.2082 35.7578 50.9423 35.359C50.1389 34.1881 49.2924 33.6798 48.0003 33.5879C46.1061 33.4648 44.8843 34.4539 44.8941 36.1136C44.8841 36.5197 44.9748 36.922 45.158 37.2845C45.5763 38.1505 46.3602 38.6686 48.7822 39.7183C53.2627 41.6419 55.1765 42.9145 56.367 44.7168C57.7002 46.7323 57.9954 49.9499 57.1 52.3524C56.1031 54.9484 53.638 56.7195 50.176 57.3001C49.1067 57.4936 46.5615 57.4623 45.4101 57.2493C42.8962 56.8016 40.5133 55.5583 39.0472 53.9299C38.4666 53.2985 37.3465 51.6389 37.4188 51.5275C37.4501 51.4864 37.7042 51.3242 37.9896 51.1599L40.3119 49.815L42.1143 48.7672L42.4916 49.3263C43.0213 50.1297 44.1708 51.2303 44.8647 51.5959C46.8606 52.6554 49.5993 52.5029 50.954 51.2909C51.5034 50.8335 51.8103 50.1298 51.7692 49.4182C51.7692 48.6949 51.6773 48.3704 51.3001 47.8289C50.8113 47.1369 49.8242 46.5465 47.0033 45.3248C43.7759 43.929 42.3801 43.0748 41.1193 41.7005C40.3255 40.796 39.7385 39.7293 39.399 38.5747C39.1644 37.6892 39.1038 35.4685 39.2876 34.583C39.9503 31.4572 42.3117 29.2893 45.7014 28.6481C46.802 28.435 49.3667 28.5152 50.4458 28.781L50.4438 28.783ZM35.763 31.4005L35.7826 33.9555H27.6368V57.0987H21.8739V33.9555H13.7399V31.4513C13.7399 30.0556 13.7712 28.8963 13.8103 28.8651C13.8415 28.824 18.7892 28.8045 24.7964 28.8142L35.7318 28.8455L35.763 31.4005Z" fill="black" fill-opacity="0.75"/>
</svg>
