<svg width="132" height="46" viewBox="0 0 132 46" fill="none" xmlns="http://www.w3.org/2000/svg">
<path d="M51.4998 25.9921V35.5954C51.4998 36.159 51.3349 36.6098 51.0051 36.9029C50.6753 37.2185 50.2277 37.3537 49.6387 37.3537C49.0733 37.3537 48.6257 37.1959 48.2959 36.8803C47.966 36.5647 47.8011 36.1364 47.8011 35.5954V26.1724C47.8011 24.6395 47.4949 23.5349 46.9059 22.8135C46.3169 22.0921 45.3746 21.7314 44.1024 21.7314C42.6182 21.7314 41.4167 22.2048 40.4979 23.1291C39.6027 24.0759 39.1315 25.3158 39.1315 26.8938V35.5728C39.1315 36.1139 38.9666 36.5422 38.6368 36.8578C38.307 37.1734 37.8594 37.3312 37.294 37.3312C36.7285 37.3312 36.2809 37.1734 35.9276 36.8578C35.5742 36.5422 35.4093 36.1139 35.4093 35.5728V20.5367C35.4093 20.0182 35.5977 19.5899 35.9511 19.2517C36.3045 18.9136 36.7521 18.7558 37.294 18.7558C37.8358 18.7558 38.2599 18.9136 38.5661 19.2292C38.8724 19.5448 39.0373 19.9731 39.0373 20.4916V22.002C39.6263 20.9199 40.4508 20.0858 41.4874 19.5222C42.5475 18.9586 43.7255 18.6656 45.0448 18.6656C49.356 18.7107 51.4998 21.1228 51.4998 25.9921Z" fill="white"/>
<path d="M69.9226 33.0481C70.1346 33.3186 70.2524 33.6567 70.2524 34.085C70.2524 34.8064 69.8048 35.3925 68.9332 35.8885C68.085 36.3844 67.1427 36.7677 66.1297 37.0382C65.1166 37.3087 64.1507 37.4439 63.2084 37.4439C60.3813 37.4439 58.1433 36.6099 56.4942 34.9417C54.8451 33.2735 54.0441 30.9966 54.0441 28.1337C54.0441 26.2852 54.3974 24.6395 55.1278 23.2193C55.8581 21.7991 56.8711 20.6719 58.1668 19.9055C59.4861 19.1165 60.9703 18.7332 62.6194 18.7332C65.0224 18.7332 66.9071 19.4997 68.2971 21.0552C69.687 22.6106 70.3938 24.7071 70.3938 27.3447C70.3938 28.3366 69.9462 28.8325 69.0745 28.8325H57.7428C57.9784 32.6423 59.8159 34.5584 63.2084 34.5584C64.1036 34.5584 64.9046 34.4457 65.5643 34.1978C66.2239 33.9498 66.9307 33.6342 67.661 33.2284C67.7317 33.1833 67.9437 33.0706 68.2735 32.9128C68.6033 32.755 68.886 32.6648 69.0981 32.6648C69.4043 32.6423 69.687 32.7775 69.9226 33.0481ZM59.2741 22.8135C58.426 23.7153 57.9077 25.0002 57.7428 26.6458H67.1898C67.1191 24.9777 66.6951 23.6927 65.9176 22.791C65.1402 21.8893 64.0565 21.4384 62.6665 21.4384C61.2766 21.4384 60.1222 21.8893 59.2741 22.8135Z" fill="white"/>
<path d="M89.9711 35.663C89.9711 36.1364 89.8062 36.5422 89.4764 36.8578C89.1466 37.196 88.7461 37.3538 88.2749 37.3538C87.8037 37.3538 87.3797 37.1509 87.0027 36.7226L81.3958 30.3654L75.8124 36.7226C75.4119 37.1509 74.9878 37.3538 74.5402 37.3538C74.069 37.3538 73.6685 37.1734 73.3387 36.8353C73.0089 36.4971 72.844 36.0914 72.844 35.618C72.844 35.1445 73.0089 34.7388 73.3623 34.3555L79.1577 27.9308L73.645 21.754C73.268 21.3257 73.1031 20.9199 73.1031 20.4916C73.1031 20.0182 73.268 19.6124 73.6214 19.2968C73.9748 18.9587 74.3517 18.8009 74.7993 18.8009C75.2705 18.8009 75.6946 19.0038 76.0715 19.4321L81.3958 25.4961L86.72 19.4321C87.1205 19.0038 87.5446 18.8009 88.0393 18.8009C88.4869 18.8009 88.8639 18.9587 89.2173 19.2968C89.5706 19.635 89.7355 20.0407 89.7355 20.4916C89.7355 20.965 89.5471 21.3708 89.1937 21.754L83.681 27.9308L89.4293 34.3555C89.7827 34.7388 89.9711 35.1671 89.9711 35.663Z" fill="white"/>
<path d="M104.083 34.9417C104.318 35.1671 104.436 35.5053 104.436 35.9111C104.436 36.407 104.248 36.7902 103.871 37.0382C103.494 37.2862 102.928 37.3989 102.198 37.3538L101.208 37.2862C99.2296 37.1284 97.7454 36.5197 96.7795 35.4602C95.79 34.3781 95.3188 32.8001 95.3188 30.7036V22.0246H93.1043C92.0206 22.0246 91.4788 21.5512 91.4788 20.5818C91.4788 20.1309 91.6201 19.7928 91.9028 19.5223C92.1855 19.2743 92.586 19.1391 93.1043 19.1391H95.2953V15.3293C95.2953 14.7657 95.4602 14.3148 95.79 13.9992C96.1198 13.6836 96.5674 13.5258 97.1328 13.5258C97.6982 13.5258 98.1459 13.6836 98.4992 13.9992C98.8526 14.3148 99.0175 14.7657 99.0175 15.3293V19.1391H102.646C103.164 19.1391 103.564 19.2743 103.847 19.5223C104.13 19.7703 104.271 20.1309 104.271 20.5818C104.271 21.0552 104.13 21.4159 103.847 21.6639C103.564 21.9118 103.164 22.0246 102.646 22.0246H98.994V30.9741C98.994 32.1238 99.2296 32.9805 99.7007 33.5215C100.172 34.0625 100.902 34.3781 101.892 34.4458L102.928 34.5134C103.47 34.5585 103.847 34.7163 104.083 34.9417Z" fill="white"/>
<path d="M107.641 36.9255C107.287 36.6324 107.099 36.1816 107.099 35.5954V12.7594C107.099 12.1733 107.287 11.7224 107.641 11.4068C107.994 11.0912 108.442 10.9559 108.984 10.9559C109.525 10.9559 109.973 11.1137 110.303 11.4068C110.656 11.7224 110.821 12.1733 110.821 12.7594V35.5954C110.821 36.1816 110.656 36.6324 110.303 36.9255C109.95 37.2185 109.525 37.3763 108.984 37.3763C108.442 37.3538 107.994 37.2185 107.641 36.9255Z" fill="white"/>
<path d="M129.338 19.0714C129.621 18.8911 129.927 18.8235 130.233 18.8235C130.705 18.8235 131.105 18.9813 131.458 19.2969C131.812 19.6125 132 19.9957 132 20.4466C132 20.6945 131.953 20.92 131.859 21.1454L121.658 42.9445C121.517 43.2826 121.305 43.5531 121.022 43.7335C120.739 43.9138 120.433 44.004 120.127 44.004C119.679 44.004 119.279 43.8462 118.925 43.5531C118.572 43.2601 118.383 42.8994 118.383 42.4485C118.383 42.2456 118.454 41.9977 118.572 41.7046L121.093 36.2718L114.025 21.1228C113.931 20.92 113.884 20.6945 113.884 20.4691C113.884 19.9957 114.072 19.6125 114.473 19.2969C114.873 18.9813 115.297 18.8235 115.792 18.8235C116.522 18.8235 117.04 19.1616 117.37 19.8604L123.048 32.5747L128.702 19.9055C128.843 19.5223 129.079 19.2518 129.338 19.0714Z" fill="white"/>
<path d="M12.2741 39.3376H0V6.46985H12.2741V39.3376Z" fill="#E5E5E5"/>
<path d="M14.7947 45.6947L29.4247 39.2699V6.42476L14.7005 0V45.6947" fill="white"/>
<path d="M0 6.46985L12.2741 13.2553V32.6648L0 39.3376V6.46985Z" fill="white"/>
</svg>
