<svg width="436" height="80" viewBox="0 0 436 80" fill="none" xmlns="http://www.w3.org/2000/svg">
<path fill-rule="evenodd" clip-rule="evenodd" d="M130.172 19.9805L141.131 45.6487C141.131 45.6859 141.206 45.9315 141.355 46.3868C141.505 46.8446 141.618 47.2732 141.693 47.6738C141.768 47.2732 141.879 46.8446 142.029 46.3868C142.179 45.9315 142.273 45.6859 142.311 45.6487L153.269 19.9805H160.069C159.919 20.3083 159.563 21.1296 159.001 22.4426C158.439 23.7565 157.737 25.3706 156.894 27.2865C156.051 29.2023 155.114 31.3367 154.084 33.6905C153.054 36.0434 151.995 38.4338 150.909 40.8595C149.822 43.287 148.763 45.6859 147.734 48.0572C146.702 50.4292 145.767 52.5722 144.923 54.4873C144.082 56.403 143.368 58.0101 142.788 59.3042C142.208 60.599 141.842 61.4117 141.693 61.7386C141.542 61.4117 141.186 60.599 140.624 59.3042C140.063 58.0101 139.36 56.403 138.518 54.4873C137.675 52.5722 136.737 50.4292 135.707 48.0572C134.676 45.6859 133.619 43.287 132.532 40.8595C131.446 38.4338 130.387 36.0434 129.357 33.6905C128.326 31.3367 127.391 29.2023 126.548 27.2865C125.704 25.3706 125.003 23.7565 124.441 22.4426C123.878 21.1296 123.522 20.3083 123.372 19.9805H130.172Z" fill="white"/>
<path fill-rule="evenodd" clip-rule="evenodd" d="M179.513 59.9402V19.9805H206.16V26.0651H186.231V36.808H203.957V43.0578H186.231V53.6904H206.929V59.9402H179.513Z" fill="white"/>
<path fill-rule="evenodd" clip-rule="evenodd" d="M261.759 19.8052V61.9387C261.499 61.6089 260.923 61.0007 260.031 60.1169C259.139 59.2339 258.043 58.1768 256.741 56.9421C255.44 55.7082 254.002 54.3466 252.421 52.8563C250.841 51.3643 249.235 49.8557 247.599 48.3269C245.963 46.8007 244.366 45.2999 242.805 43.8263C241.243 42.3544 239.822 41.0024 238.541 39.7677C237.258 38.5347 236.179 37.4855 235.308 36.62C234.432 35.7563 233.866 35.1568 233.606 34.8261C233.568 34.7526 233.421 34.5583 233.16 34.246C232.9 33.9335 232.677 33.6473 232.491 33.3891L232.659 35.1568V60.0626H225.858V17.9824C226.117 18.3141 226.693 18.9127 227.586 19.7773C228.477 20.6427 229.573 21.6824 230.876 22.8978C232.175 24.1124 233.615 25.4382 235.195 26.8742C236.774 28.3094 238.382 29.7724 240.018 31.2636C241.652 32.7547 243.251 34.2276 244.811 35.6819C246.373 37.1363 247.803 38.4612 249.104 39.6574C250.405 40.8545 251.492 41.8758 252.366 42.7229C253.238 43.569 253.806 44.1571 254.067 44.4897L255.125 46.0358L254.958 44.1571V19.8052H261.759Z" fill="white"/>
<path fill-rule="evenodd" clip-rule="evenodd" d="M292.552 53.8063C294.668 53.8063 296.618 53.5126 298.401 52.9223C300.184 52.3347 301.723 51.4603 303.024 50.3017C304.324 49.143 305.337 47.7275 306.062 46.0538C306.785 44.3792 307.147 42.439 307.147 40.2319C307.147 37.7302 306.71 35.6062 305.838 33.8582C304.965 32.1113 303.86 30.6947 302.524 29.6096C301.186 28.5253 299.7 27.7339 298.067 27.2364C296.432 26.7397 294.873 26.4922 293.387 26.4922H287.928V53.8063H292.552ZM281.076 19.9805H291.605C295.69 19.9805 299.153 20.5968 301.994 21.8289C304.836 23.0619 307.147 24.6523 308.93 26.6023C310.712 28.5522 312.002 30.768 312.8 33.2514C313.601 35.7348 313.999 38.2084 313.999 40.6726C313.999 43.6902 313.45 46.4034 312.356 48.8125C311.26 51.2224 309.783 53.2737 307.927 54.9649C306.07 56.6577 303.907 57.9545 301.437 58.8542C298.967 59.7575 296.358 60.2069 293.61 60.2069H281.076V19.9805Z" fill="white"/>
<path fill-rule="evenodd" clip-rule="evenodd" d="M340.395 40.019C340.395 41.9125 340.757 43.6896 341.479 45.3511C342.201 47.0119 343.201 48.4578 344.48 49.6907C345.756 50.9226 347.238 51.8964 348.923 52.6114C350.608 53.3255 352.431 53.6821 354.395 53.6821C356.283 53.6821 358.069 53.3255 359.756 52.6114C361.44 51.8964 362.901 50.9226 364.144 49.6907C365.384 48.4578 366.364 47.0119 367.088 45.3511C367.81 43.6896 368.17 41.9125 368.17 40.019C368.17 38.1257 367.8 36.3485 367.059 34.6878C366.319 33.027 365.319 31.5718 364.06 30.321C362.801 29.0712 361.328 28.0889 359.644 27.374C357.959 26.6599 356.153 26.3024 354.227 26.3024C352.302 26.3024 350.496 26.6599 348.812 27.374C347.127 28.0889 345.663 29.0712 344.424 30.321C343.182 31.5718 342.201 33.027 341.479 34.6878C340.757 36.3485 340.395 38.1257 340.395 40.019ZM333.564 40.019C333.564 37.3046 334.109 34.7328 335.203 32.3037C336.294 29.8745 337.775 27.7492 339.646 25.9271C341.516 24.1059 343.701 22.6592 346.201 21.5877C348.702 20.5162 351.376 19.9805 354.227 19.9805C357.042 19.9805 359.708 20.5162 362.226 21.5877C364.744 22.6592 366.949 24.1059 368.839 25.9271C370.727 27.7492 372.215 29.8745 373.309 32.3037C374.4 34.7328 374.947 37.3046 374.947 40.019C374.947 42.77 374.4 45.3511 373.309 47.7616C372.215 50.1721 370.727 52.2803 368.839 54.0837C366.949 55.888 364.744 57.3084 362.226 58.3442C359.708 59.3793 357.042 59.8972 354.227 59.8972C351.376 59.8972 348.702 59.3793 346.201 58.3442C343.701 57.3084 341.516 55.888 339.646 54.0837C337.775 52.2803 336.294 50.1721 335.203 47.7616C334.109 45.3511 333.564 42.77 333.564 40.019Z" fill="white"/>
<path fill-rule="evenodd" clip-rule="evenodd" d="M401.115 40.0511C401.115 41.9475 401.477 43.7275 402.2 45.3917C402.924 47.0551 403.926 48.5034 405.205 49.7383C406.483 50.9723 407.967 51.9477 409.656 52.6638C411.342 53.379 413.17 53.7362 415.136 53.7362C417.027 53.7362 418.818 53.379 420.504 52.6638C422.193 51.9477 423.657 50.9723 424.901 49.7383C426.144 48.5034 427.125 47.0551 427.849 45.3917C428.572 43.7275 428.933 41.9475 428.933 40.0511C428.933 38.1548 428.563 36.3748 427.821 34.7114C427.08 33.048 426.077 31.5903 424.816 30.3377C423.556 29.0859 422.082 28.1019 420.394 27.3858C418.705 26.6706 416.897 26.3125 414.969 26.3125C413.039 26.3125 411.232 26.6706 409.545 27.3858C407.857 28.1019 406.391 29.0859 405.148 30.3377C403.906 31.5903 402.924 33.048 402.2 34.7114C401.477 36.3748 401.115 38.1548 401.115 40.0511ZM394.271 40.0511C394.271 37.3324 394.819 34.7564 395.913 32.3234C397.007 29.8903 398.491 27.7617 400.365 25.9367C402.237 24.1126 404.426 22.6634 406.929 21.5903C409.433 20.517 412.113 19.9805 414.969 19.9805C417.786 19.9805 420.458 20.517 422.98 21.5903C425.502 22.6634 427.71 24.1126 429.602 25.9367C431.494 27.7617 432.986 29.8903 434.081 32.3234C435.174 34.7564 435.721 37.3324 435.721 40.0511C435.721 42.8065 435.174 45.3917 434.081 47.8061C432.986 50.2205 431.494 52.3321 429.602 54.1384C427.71 55.9455 425.502 57.3683 422.98 58.4058C420.458 59.4425 417.786 59.9612 414.969 59.9612C412.113 59.9612 409.433 59.4425 406.929 58.4058C404.426 57.3683 402.237 55.9455 400.365 54.1384C398.491 52.3321 397.007 50.2205 395.913 47.8061C394.819 45.3917 394.271 42.8065 394.271 40.0511Z" fill="white"/>
<path fill-rule="evenodd" clip-rule="evenodd" d="M79.9597 28.9232L71.9565 40.4346C70.37 42.1831 69.2119 42.9427 68.1537 42.9427C67.0599 42.9427 65.8222 42.5427 64.4762 41.7544C62.017 40.3133 59.3012 37.6957 56.174 33.7491C55.2242 32.5524 54.2345 31.2268 53.1475 29.6973C52.7412 29.1271 52.34 28.5543 51.8744 27.8822L51.071 26.7403L59.6279 14.7581C61.9467 11.4651 65.7663 9.41854 69.5979 9.41854C72.2155 9.41854 74.5274 10.1006 76.4898 11.4525C76.5041 11.4633 76.5211 11.4717 76.5363 11.4827L77.0282 11.77C80.461 14.1863 82.2438 18.0731 82.1271 21.9767C82.1262 24.4006 81.4286 26.8354 79.9597 28.9232ZM45.6767 70.7356C42.519 70.7356 38.6603 68.0382 35.6051 63.6956V63.6965L26.541 50.6591L19.4315 40.4346L15.0837 34.1804L11.4281 28.9232C9.95937 26.8354 9.26265 24.4006 9.26095 21.9767C9.14504 18.0731 10.9279 14.1863 14.3607 11.77L14.8526 11.4827C14.8677 11.4719 14.8839 11.4633 14.8982 11.4525L14.938 11.4171C17.0095 9.9971 19.3766 9.24668 21.7892 9.24668C25.7892 9.24668 29.5193 11.1551 31.7676 14.3531L41.0189 27.4848L42.182 29.1776C42.3675 29.453 42.5884 29.7824 42.6882 29.9263L43.9734 31.791C44.5296 32.597 45.002 33.2733 45.4802 33.9454C45.553 34.049 45.6217 34.1416 45.6944 34.2426C46.9084 35.9398 47.9988 37.3833 49.0976 38.7427C54.6163 45.5636 59.7905 49.4834 64.847 50.6591L55.7829 63.6965V63.6956C52.7284 68.0382 48.869 70.7356 45.7113 70.7356H45.6767ZM91.3503 20.3782C90.9885 15.0621 88.8009 10.2464 85.2313 6.63419C84.9477 6.34867 84.6684 6.08502 84.3839 5.8273C83.9868 5.47185 83.7295 5.25801 83.4696 5.04734C83.4002 4.99189 83.3334 4.93542 83.2639 4.88069C82.9489 4.63224 82.6264 4.39132 82.2955 4.16054C82.2904 4.15721 81.8154 3.82869 81.8154 3.82869C80.8656 3.16586 79.8692 2.5915 78.839 2.09721C76.5363 0.992207 74.0559 0.31418 71.4907 0.0901978C70.8644 0.0354691 70.2336 0 69.5988 0C65.7782 0 62.0915 1.01494 58.8787 2.85255C56.2071 4.38119 53.8611 6.47753 52.0496 9.05122L45.6953 18.0823L39.3384 9.05122C37.5268 6.47753 35.181 4.38119 32.5093 2.85255C29.2965 1.01494 25.6098 0 21.7901 0C21.1544 0 20.5245 0.0354691 19.8971 0.0901978C17.3322 0.31418 14.8526 0.992207 12.549 2.09721C11.5188 2.5915 10.5223 3.16586 9.57249 3.82869L9.12972 4.13447C8.76157 4.39132 8.43981 4.63224 8.12401 4.88069C8.05464 4.93542 7.98782 4.99189 7.91915 5.04734C7.6584 5.25801 7.4019 5.47185 7.15221 5.69337C6.71965 6.08501 6.44031 6.34867 6.17104 6.62072C2.58758 10.2464 0.400105 15.0621 0.0478443 20.2012C0.0190449 20.699 0.00982437 21.0216 0.00471709 21.3442C0.00216345 21.5118 -0.00124447 21.6778 0.000457953 21.8453C0.00471402 22.2773 0.0267027 22.7078 0.0555021 23.1365C0.070682 23.3486 0.0902612 23.5601 0.112251 23.7722C0.131687 23.9626 0.156229 24.1521 0.179921 24.3417C0.608365 27.6296 1.81127 30.8645 3.85064 33.7625L28.0258 69.5245C28.5313 70.2438 29.0671 70.9276 29.6217 71.5838C29.6911 71.6655 29.757 71.7522 29.8265 71.8331C29.9171 71.9384 30.0127 72.0352 30.1042 72.1388C34.475 77.048 40.1267 80 45.4294 80H45.9586C51.2622 80 56.913 77.048 61.2838 72.1388C61.3752 72.0352 61.471 71.9384 61.5615 71.8331C61.6317 71.7522 61.6978 71.6655 61.7663 71.5838C62.3218 70.9276 62.8567 70.2438 63.3629 69.5245L87.5368 33.7625C89.5769 30.8645 90.7799 27.6296 91.2084 24.3417C91.2311 24.1521 91.2566 23.9626 91.2751 23.7722C91.2978 23.5601 91.3176 23.3486 91.3318 23.1365C91.3616 22.7078 91.3843 22.2773 91.3871 21.8453C91.3886 21.6778 91.3857 21.5118 91.3843 21.3442C91.3786 21.0216 91.3687 20.699 91.3503 20.3782Z" fill="white"/>
</svg>
