<svg width="142" height="100" viewBox="0 0 142 100" fill="none" xmlns="http://www.w3.org/2000/svg">
<path d="M19.0619 46.5901L62.8706 3.6823L79.3695 16.0959L82.7831 9.88852L100.136 10.695L118.619 7.6846L118.906 11.7779L110.381 17.7157L109.552 19.5371L121.69 19.7169L121.358 44.0487L100.303 48.9968L13.4916 58.9818" fill="white"/>
<path d="M15.6326 61.8495L120.014 57.1428L138.572 92.5769L131.971 92.532L117.89 88.9795L117.752 89.5123L117.521 92.265L92.5906 93.5079L86.7736 91.998L84.7893 95.0614L70.4775 98.5714L63.3221 95.6403L62.0291 96.3515L61.6596 98.4828L43.1004 98.4379L11.4294 63.8485" fill="white"/>
<path d="M41.3718 99.9999C41.3234 99.9995 41.2757 99.9891 41.2316 99.9694C41.1875 99.9497 41.1479 99.9211 41.1153 99.8854L3.95034 61.2126L3.94347 61.2046V61.1931C3.90153 61.1459 3.87064 61.09 3.85303 61.0294C3.8546 61.025 3.8546 61.0201 3.85303 61.0157C3.83939 60.9499 3.84274 60.8817 3.86278 60.8176C3.88281 60.7535 3.91886 60.6956 3.96752 60.6493L62.3122 2.33207L78.0433 14.0102L82.1982 9.01835L100.963 9.46372L119.786 5.47142L119.428 12.9133L109.659 18.6963L120.993 19.1325L121.319 46.2669L100.252 51.0755L16.9634 59.9795L120.12 54.9762H120.141C120.208 54.976 120.274 54.9943 120.332 55.029C120.389 55.0637 120.437 55.1136 120.468 55.1732L139.931 92.8121C139.953 92.8533 139.967 92.8984 139.971 92.9449C139.975 92.9913 139.969 93.0381 139.954 93.0823C139.94 93.1274 139.916 93.169 139.885 93.2048C139.854 93.2405 139.816 93.2698 139.773 93.2907C139.72 93.3164 139.662 93.3297 139.603 93.3296L131.621 93.2529C131.582 93.2505 131.544 93.2451 131.506 93.2369L118.785 89.2217C118.748 89.2096 118.709 89.2034 118.67 89.2034C118.595 89.2026 118.521 89.2255 118.46 89.2688C118.398 89.3121 118.352 89.3738 118.327 89.445C118.316 89.4781 118.31 89.5129 118.31 89.548L118.179 92.9965C118.174 93.0859 118.136 93.1703 118.073 93.2336C118.01 93.2969 117.925 93.3348 117.836 93.3399L92.4108 94.5055H92.3913C92.3525 94.5053 92.314 94.4995 92.2768 94.4883L87.6972 92.9381C87.6578 92.9245 87.6164 92.9175 87.5747 92.9175C87.5172 92.9173 87.4604 92.9305 87.4089 92.9561C87.3574 92.9818 87.3126 93.0191 87.2781 93.0652L85.1028 96.0064C85.0528 96.077 84.9779 96.1261 84.8933 96.1438L69.8194 99.6496C69.7893 99.6564 69.7586 99.6599 69.7278 99.6599C69.6825 99.6599 69.6376 99.6522 69.595 99.637L62.7576 96.8892C62.7023 96.8656 62.6421 96.8562 62.5823 96.8617C62.5225 96.8672 62.465 96.8875 62.4151 96.9208C62.3651 96.9541 62.3242 96.9993 62.296 97.0523C62.2679 97.1054 62.2534 97.1646 62.2538 97.2246L62.2893 99.3748C62.2904 99.4217 62.2821 99.4684 62.2647 99.5121C62.2474 99.5557 62.2215 99.5955 62.1885 99.6289C62.1558 99.6638 62.1165 99.6918 62.0729 99.7115C62.0292 99.7311 61.9822 99.742 61.9344 99.7434L41.3889 99.9999H41.3718ZM58.7057 63.9478L40.9081 65.656L42.511 97.8463L59.9365 97.6574L59.9766 92.416L46.7906 92.7079C46.7792 92.5064 45.4728 70.033 45.4431 69.7239C45.4431 69.7353 45.5118 69.741 45.632 69.741C47.228 69.741 58.3554 68.7106 58.8282 68.6705L58.7137 63.9466L58.7057 63.9478ZM64.096 63.823L64.8711 93.4155L69.8663 97.2258L83.7701 94.0395L85.9157 91.1646L84.9036 65.1969L81.2181 61.8263L81.012 61.8514C77.1949 62.3094 64.6936 63.823 64.1154 63.823H64.096ZM94.2174 59.0624L89.9561 59.8272L91.3838 88.0424L92.9867 92.0416L107.908 91.2917L108.146 86.4831L95.5604 87.628L94.2174 59.0613V59.0624ZM127.175 79.9296L132.111 91.0352L136.69 91.2241L119.092 57.2661H114.274L112.549 90.9139L116.118 90.7925L116.475 80.9257L127.175 79.9285V79.9296ZM63.4216 5.5195L59.2599 49.3994L75.1925 41.4148L77.5086 15.8832L63.4262 5.52065L63.4216 5.5195ZM114.986 24.7368L115.465 40.9064L100.302 43.4653L100.187 47.8343L119.033 43.6531L118.974 20.8029L104.045 20.3072V15.0612L117.305 10.6899V7.69483L101.726 10.8777L100.48 24.7998L114.986 24.7368ZM83.2183 10.7586C83.1038 10.9395 80.7636 43.3279 80.664 44.7064V44.7201L93.029 45.0968V41.2281L84.7067 41.0392L85.0032 33.1142L95.2879 33.3592L95.4082 28.9856L85.539 28.8631L86.6129 15.4986L96.8977 15.3726L96.8393 11.0655L83.2183 10.7586ZM70.0976 92.977L68.4455 90.9276L67.9932 67.6264L79.9461 66.1162L81.5959 67.8015L82.6538 89.3259L80.5289 91.6157L70.0976 92.9816V92.977ZM117.068 77.6844L117.484 60.1501L125.451 77.3181L117.07 77.6901L117.068 77.6844ZM63.3621 43.3371L66.5713 13.5522C66.5804 13.5522 66.6468 13.5934 66.7636 13.6598C69.7553 15.3531 74.778 18.2166 74.778 18.3631C74.778 18.544 72.7847 38.7311 72.7 39.5898L63.3678 43.3359L63.3621 43.3371Z" fill="#333333"/>
</svg>
